# AST/ASF file generated using VICON BodyLanguage
# -----------------------------------------------
:version 1.10
:name VICON
:units
  mass 1.0
  length 0.45
  angle deg
:documentation
   .ast/.asf automatically generated from VICON data using
   VICON BodyBuilder and BodyLanguage model FoxedUp or BRILLIANT.MOD
:root
   order TX TY TZ RX RY RZ
   axis XYZ
   position 0 0 0  
   orientation 0 0 0 
:bonedata
  begin
     id 1 
     name lhipjoint
     direction 0.588788 -0.725889 0.355548 
     length 2.37778 
     axis 0 0 0  XYZ
  end
  begin
     id 2 
     name lfemur
     direction 0.34202 -0.939693 0  
     length 6.86393  
     axis 0 0 20  XYZ
    dof rx ry rz
    limits (-160.0 20.0)
           (-70.0 70.0)
           (-60.0 70.0)
  end
  begin
     id 3 
     name ltibia
     direction 0.34202 -0.939693 0   
     length 7.32851   
     axis 0 0 20   XYZ
    dof rx
    limits (-10.0 170.0)
  end
  begin
     id 4 
     name lfoot
     direction 0.0626533 -0.172138 0.983078   
     length 1.98929   
     axis -90 7.62852e-016 20   XYZ
    dof rx rz
    limits (-45.0 90.0)
           (-70.0 20.0)
  end
  begin
     id 5 
     name ltoes
     direction 1.53647e-011 -4.21734e-011 1   
     length 1.00479   
     axis -90 7.62852e-016 20   XYZ
    dof rx
    limits (-90.0 20.0)
  end
  begin
     id 6 
     name rhipjoint
     direction -0.59141 -0.724168 0.354705   
     length 2.38343  
     axis 0 0 0  XYZ 
  end
  begin
     id 7 
     name rfemur
     direction -0.34202 -0.939693 0   
     length 6.95589   
     axis 0 0 -20   XYZ
    dof rx ry rz
    limits (-160.0 20.0)
           (-70.0 70.0)
           (-70.0 60.0)
  end
  begin
     id 8 
     name rtibia
     direction -0.34202 -0.939693 0   
     length 7.32327   
     axis 0 0 -20   XYZ
    dof rx
    limits (-10.0 170.0)
 end
 begin
     id 9 
     name rfoot
     direction -0.0660461 -0.18146 0.981178   
     length 1.85272  
     axis -90 -7.62852e-016 -20   XYZ
    dof rx rz
    limits (-45.0 90.0)
           (-20.0 70.0)
  end
  begin
     id 10 
     name rtoes
     direction -1.53586e-011 -4.21988e-011 1   
     length 0.93746   
     axis -90 -7.62852e-016 -20   XYZ
    dof rx
    limits (-90.0 20.0)
  end
  begin
     id 11 
     name lowerback
     direction -0.0107982 0.991059 0.13299   
     length 1.98691   
     axis 0 0 0   XYZ
    dof rx ry rz
    limits (-20.0 45.0)
           (-30.0 30.0)
           (-30.0 30.0)
  end
  begin
     id 12 
     name upperback
     direction 0.0076296 0.999916 0.0104576   
     length 1.99501   
     axis 0 0 0   XYZ
    dof rx ry rz
    limits (-20.0 45.0)
           (-30.0 30.0)
           (-30.0 30.0)
  end
  begin
     id 13 
     name thorax
     direction 0.01176 0.998615 -0.0512909   
     length 2.03144   
     axis 0 0 0   XYZ
    dof rx ry rz
    limits (-20.0 45.0)
           (-30.0 30.0)
           (-30.0 30.0)
  end
  begin
     id 14 
     name lowerneck
     direction -0.0171909 0.999644 0.0204011   
     length 1.71818   
     axis 0 0 0   XYZ
    dof rx ry rz
    limits (-20.0 45.0)
           (-30.0 30.0)
           (-30.0 30.0)
  end
  begin
     id 15 
     name upperneck
     direction 0.0250902 0.997482 -0.0663316   
     length 1.66199   
     axis 0 0 0   XYZ
    dof rx ry rz
    limits (-20.0 45.0)
           (-30.0 30.0)
           (-30.0 30.0)
  end
  begin
     id 16
     name head
     direction 0.00881535 0.99956 -0.0283365  
     length 1.81545  
     axis 0 0 0   XYZ
    dof rx ry rz
    limits (-20.0 45.0)
           (-30.0 30.0)
           (-30.0 30.0)
  end
  begin
     id 17 
     name lclavicle
     direction 0.840411 0.486876 -0.238035  
     length 3.30409  
     axis 0 0 0   XYZ
    dof ry rz
    limits (-20.0 10.0)
           (0.0 20.0)
  end
  begin
     id 18 
     name lhumerus
     direction 1 -4.48977e-011 -5.16239e-027   
     length 4.62672   
     axis 180 -30 -90   XYZ
    dof rx ry rz
    limits (-60.0 90.0)
           (-90.0 90.0)
           (-90.0 90.0)
  end
  begin
     id 19
     name lradius
     direction 1 -4.48977e-011 -8.71171e-027   
     length 3.11018   
     axis 180 -30 -90   XYZ
    dof rx
    limits (-10.0 170.0)
  end
  begin
     id 20
     name lwrist
     direction 1 -4.48912e-011 -1.03764e-026   
     length 1.55509   
     axis 9.09556e-015 90 90   XYZ
    dof ry
    limits (-180.0 0.0)
 end
  begin
     id 21 
     name lhand
     direction 1 -4.49072e-011 -2.07528e-026   
     length 0.743834   
     axis 1.3242e-014 90 90   XYZ
    dof rx rz
    limits (-90.0 90.0)
           (-45.0 45.0)
  end
  begin
     id 22 
     name lfingers
     direction 1 -4.48909e-011 -4.15056e-026   
     length 0.599698   
     axis 2.64841e-014 90 90   XYZ
    dof rx
    limits (0.0 90.0)
  end
  begin
     id 23
     name lthumb
     direction 0.707107 -6.35013e-011 0.707107   
     length 0.86105   
     axis -90 45 2.85299e-015   XYZ
    dof rx rz
    limits (-45.0 45.0)
           (-45.0 45.0)
  end
  begin
     id 24 
     name rclavicle
     direction -0.835208 0.500237 -0.228452   
     length 3.2716  
     axis 0 0 0   XYZ 
    dof ry rz
    limits (-10.0 20.0)
           (-20.0 0.0)
  end
  begin
     id 25 
     name rhumerus
     direction -1 -4.48978e-011 -5.1953e-028  
     length 4.55919   
     axis 180 30 90   XYZ
    dof rx ry rz
    limits (-90.0 60.0)
           (-90.0 90.0)
           (-90.0 90.0)
  end
  begin
     id 26 
     name rradius
     direction -1 -4.48961e-011 -5.99546e-027   
     length 3.22748   
     axis 180 30 90   XYZ
    dof rx
    limits (-10.0 170.0)
  end
  begin
     id 27 
     name rwrist
     direction -1 -4.48986e-011 -1.03764e-026   
     length 1.61374   
     axis 9.09556e-015 -90 -90   XYZ
    dof ry
    limits (-180.0 0.0)
  end
  begin
     id 28
     name rhand
     direction -1 -4.4899e-011 -2.07528e-026   
     length 0.700882   
     axis 1.3242e-014 -90 -90   XYZ
    dof rx rz
    limits (-90.0 90.0)
           (-45.0 45.0)
  end
  begin
     id 29
     name rfingers
     direction -1 -4.48991e-011 -4.15056e-026   
     length 0.565069   
     axis 2.64841e-014 -90 -90   XYZ
    dof rx
    limits (0.0 90.0)
  end
  begin
     id 30
     name rthumb
     direction -0.707107 -6.34804e-011 0.707107   
     length 0.811329   
     axis -90 -45 -2.85299e-015   XYZ
    dof rx rz
    limits (-45.0 45.0)
           (-45.0 45.0)
  end
:hierarchy
  begin
    root lhipjoint rhipjoint lowerback
    lhipjoint lfemur
    lfemur ltibia
    ltibia lfoot
    lfoot ltoes
    rhipjoint rfemur
    rfemur rtibia
    rtibia rfoot
    rfoot rtoes
    lowerback upperback
    upperback thorax
    thorax lowerneck lclavicle rclavicle
    lowerneck upperneck
    upperneck head
    lclavicle lhumerus
    lhumerus lradius
    lradius lwrist
    lwrist lhand lthumb
    lhand lfingers
    rclavicle rhumerus
    rhumerus rradius
    rradius rwrist
    rwrist rhand rthumb
    rhand rfingers
  end

#!OML:ASF F:\VICON\USERDATA\INSTALL\SteveWalk\SteveWalk.ASF
:FULLY-SPECIFIED
:DEGREES
64
root -0.656612 16.4194 -32.5909 16.3508 -2.49397 3.39492
lowerback -14.8107 -0.953821 -5.63789
upperback -4.91356 -0.408412 -1.12445
thorax 3.11829 -0.192974 1.93274
lowerneck -2.21516 -0.8127 -0.60464
upperneck 6.97844 -1.15768 1.42277
head 2.6004 -0.549277 0.523416
rclavicle -9.01442e-015 2.18663e-015
rhumerus -46.0386 -28.3593 -66.8188
rradius 16.4309
rwrist 21.1766
rhand -12.0935 -34.3147
rfingers 7.12502
rthumb 13.9669 -63.8255
lclavicle -9.01442e-015 2.18663e-015
lhumerus -37.3069 20.8535 71.7067
lradius 17.7196
lwrist -20.8766
lhand -16.24 -15.4244
lfingers 7.12502
lthumb 9.9686 14.3196
rfemur -39.5907 -3.53195 17.4725
rtibia 76.698
rfoot -5.0144 3.8075
rtoes -14.0777
lfemur -30.8815 -0.263122 -27.0032
ltibia 34.5929
lfoot -19.3791 -2.72335
ltoes -7.78995
65
root -0.657761 16.4218 -32.3988 16.1043 -2.27589 3.3189
lowerback -14.1076 -0.975139 -5.61471
upperback -5.06001 -0.500665 -1.00838
thorax 2.59362 -0.22266 2.0313
lowerneck -2.10231 -0.886654 -0.670221
upperneck 7.26057 -1.25839 1.43582
head 2.67602 -0.600347 0.536527
rclavicle 3.03923e-015 -1.98785e-016
rhumerus -48.4159 -30.4256 -63.4653
rradius 15.6448
rwrist 24.3051
rhand -12.0832 -34.7958
rfingers 7.12502
rthumb 13.9768 -64.306
lclavicle 3.03923e-015 -1.98785e-016
lhumerus -36.2552 18.5113 73.4105
lradius 18.4258
lwrist -19.1057
lhand -16.6119 -15.9243
lfingers 7.12502
lthumb 9.60978 13.8365
rfemur -40.7277 -3.47453 17.817
rtibia 75.8955
rfoot -6.63438 3.26953
rtoes -15.966
lfemur -29.8593 -0.112163 -26.9267
ltibia 34.5333
lfoot -19.9208 -3.29533
ltoes -6.25623
66
root -0.652117 16.4088 -32.1989 15.9695 -2.40695 3.19016
lowerback -13.921 -0.894239 -5.49199
upperback -4.93845 -0.422343 -0.908444
thorax 2.61605 -0.186609 2.08035
lowerneck -2.43792 -0.869656 -0.72645
upperneck 7.20692 -1.23752 1.52846
head 2.72151 -0.587318 0.57569
rclavicle 1.77276e-015 6.95746e-015
rhumerus -50.7984 -33.4654 -59.1865
rradius 14.5772
rwrist 28.6197
rhand -12.2479 -34.7196
rfingers 7.12502
rthumb 13.8181 -64.2406
lclavicle 1.77276e-015 6.95746e-015
lhumerus -34.8476 15.9719 75.3434
lradius 19.4714
lwrist -16.8593
lhand -16.5933 -15.4015
lfingers 7.12502
lthumb 9.62776 14.3584
rfemur -41.918 -3.14776 18.1172
rtibia 74.8917
rfoot -8.6316 2.64224
rtoes -15.22
lfemur -28.9229 0.402693 -26.9425
ltibia 34.4544
lfoot -20.521 -3.54877
ltoes -6.14869
67
root -0.658268 16.4028 -32.0267 16.3688 -1.45285 3.27775
lowerback -13.9044 -1.22899 -5.65585
upperback -5.0365 -0.851361 -0.756912
thorax 2.53931 -0.393521 2.26321
lowerneck -2.45845 -0.898279 -0.705695
upperneck 7.08067 -1.27175 1.47983
head 2.68261 -0.60557 0.555211
rclavicle -4.94768e-015 -1.21259e-014
rhumerus -53.5872 -36.1247 -54.6118
rradius 13.6729
rwrist 32.7738
rhand -12.4657 -34.1401
rfingers 7.12502
rthumb 13.6082 -63.6753
lclavicle -4.94768e-015 -1.21259e-014
lhumerus -33.6562 13.9167 76.8299
lradius 20.5998
lwrist -15.3008
lhand -16.4507 -15.0249
lfingers 7.12502
lthumb 9.7653 14.7287
rfemur -43.7549 -3.70939 18.4989
rtibia 73.8
rfoot -9.51325 2.20009
rtoes -12.8581
lfemur -28.6711 0.432837 -26.9545
ltibia 34.5114
lfoot -21.01 -4.47052
ltoes -5.28361
68
root -0.648683 16.4018 -31.8194 16.3757 -1.38505 3.13208
lowerback -14.0685 -1.18306 -5.45117
upperback -5.06449 -0.811413 -0.648954
thorax 2.59498 -0.374997 2.26616
lowerneck -2.10348 -0.94466 -0.719092
upperneck 7.11582 -1.33197 1.43706
head 2.62908 -0.638545 0.542996
rclavicle 7.69941e-015 6.65929e-015
rhumerus -56.7198 -37.8892 -50.1279
rradius 13.0462
rwrist 36.3231
rhand -12.6803 -33.7443
rfingers 7.12502
rthumb 13.4013 -63.2932
lclavicle 7.69941e-015 6.65929e-015
lhumerus -32.88 11.8051 78.0792
lradius 21.7474
lwrist -13.9074
lhand -16.5314 -15.5743
lfingers 7.12502
lthumb 9.68747 14.183
rfemur -44.9526 -3.51794 18.7825
rtibia 72.3313
rfoot -10.5243 1.75792
rtoes -7.8481
lfemur -27.8249 0.80851 -26.8974
ltibia 34.5927
lfoot -21.593 -4.69372
ltoes -4.29254
69
root -0.649588 16.3799 -31.629 16.3691 -1.10565 3.03181
lowerback -13.8608 -1.26488 -5.39721
upperback -5.14272 -0.948466 -0.495158
thorax 2.41356 -0.436552 2.37778
lowerneck -1.91982 -0.91278 -0.750717
upperneck 7.09108 -1.28645 1.41049
head 2.58635 -0.618337 0.541747
rclavicle 3.6154e-015 -8.64713e-015
rhumerus -59.9929 -39.4495 -45.4111
rradius 12.5098
rwrist 39.7751
rhand -12.8877 -33.4014
rfingers 7.12502
rthumb 13.2015 -62.9634
lclavicle 3.6154e-015 -8.64713e-015
lhumerus -32.0804 9.63744 79.2584
lradius 22.8948
lwrist -12.2865
lhand -16.6495 -16.0277
lfingers 7.12502
lthumb 9.57354 13.7348
rfemur -45.9376 -3.55442 19.2462
rtibia 70.5731
rfoot -11.3733 0.566046
rtoes -9.04449
lfemur -27.0975 1.34205 -26.851
ltibia 34.6577
lfoot -22.3669 -5.0647
ltoes -4.42898
70
root -0.647491 16.3563 -31.4266 16.244 -0.826819 2.92341
lowerback -13.591 -1.29851 -5.21071
upperback -5.21154 -1.03878 -0.432238
thorax 2.2025 -0.476215 2.32829
lowerneck -2.32788 -1.08728 -0.573002
upperneck 7.69642 -1.52102 1.22293
head 2.86464 -0.732835 0.442729
rclavicle 7.22924e-016 2.08724e-015
rhumerus -62.7453 -40.0495 -41.9375
rradius 12.2843
rwrist 41.4549
rhand -13.0044 -33.5521
rfingers 7.12502
rthumb 13.0889 -63.1214
lclavicle 7.22924e-016 2.08724e-015
lhumerus -31.2969 7.71588 80.1227
lradius 23.7963
lwrist -10.9744
lhand -16.6482 -16.1672
lfingers 7.12502
lthumb 9.57481 13.5952
rfemur -46.5818 -3.55905 19.6765
rtibia 68.5469
rfoot -12.1553 -0.469921
rtoes -12.3966
lfemur -26.158 2.00854 -26.8261
ltibia 34.6646
lfoot -23.3459 -5.38099
ltoes -4.86974
71
root -0.640368 16.3371 -31.211 16.0759 -0.830841 2.90268
lowerback -13.5091 -1.20039 -5.07882
upperback -5.25974 -0.93154 -0.4657
thorax 2.09778 -0.420988 2.23692
lowerneck -2.29412 -1.25544 -0.385227
upperneck 8.25948 -1.75043 1.06538
head 3.04801 -0.845036 0.351632
rclavicle 7.19041e-016 3.97569e-016
rhumerus -64.8215 -39.9239 -39.7355
rradius 12.2285
rwrist 41.9112
rhand -12.8252 -34.2926
rfingers 7.12502
rthumb 13.2617 -63.8507
lclavicle 7.19041e-016 3.97569e-016
lhumerus -30.6147 5.78564 80.8781
lradius 24.6256
lwrist -9.70371
lhand -16.612 -16.2204
lfingers 7.12502
lthumb 9.60975 13.5404
rfemur -47.1266 -3.31753 19.841
rtibia 66.3279
rfoot -12.6618 -1.18197
rtoes -12.022
lfemur -25.0592 2.6903 -26.9456
ltibia 34.5551
lfoot -24.1874 -5.33812
ltoes -5.62577
72
root -0.645352 16.3322 -31.0199 16.4868 -0.290955 3.0511
lowerback -13.6975 -1.38332 -5.28707
upperback -5.36874 -1.13922 -0.399759
thorax 2.10361 -0.51957 2.38959
lowerneck -2.54694 -1.32823 -0.251152
upperneck 8.65364 -1.84677 0.910124
head 3.22829 -0.892041 0.272471
rclavicle 2.7892e-015 7.95139e-016
rhumerus -66.0399 -39.6562 -38.4601
rradius 12.1873
rwrist 42.1069
rhand -12.4855 -34.8199
rfingers 7.12502
rthumb 13.5891 -64.3564
lclavicle 2.7892e-015 7.95139e-016
lhumerus -29.7219 3.93118 81.6713
lradius 25.6567
lwrist -8.39867
lhand -16.6799 -16.1645
lfingers 7.12502
lthumb 9.54417 13.5994
rfemur -48.2832 -3.53672 20.0048
rtibia 63.8894
rfoot -12.7579 -1.97483
rtoes -7.88639
lfemur -24.6314 3.14326 -27.0829
ltibia 34.2567
lfoot -24.703 -6.03892
ltoes -5.84506
73
root -0.640334 16.3395 -30.8114 16.5461 0.147013 2.94533
lowerback -13.8216 -1.49254 -5.07523
upperback -5.18269 -1.30063 -0.269613
thorax 2.37894 -0.610179 2.37746
lowerneck -2.81208 -1.14158 -0.586178
upperneck 8.24466 -1.60929 1.36448
head 3.14554 -0.768539 0.485583
rclavicle 1.93679e-015 8.94531e-016
rhumerus -67.2368 -39.7292 -36.8295
rradius 12.0437
rwrist 43.1263
rhand -12.3134 -34.8062
rfingers 7.12502
rthumb 13.755 -64.3316
lclavicle 1.93679e-015 8.94531e-016
lhumerus -28.6994 2.21089 82.3834
lradius 26.9682
lwrist -7.01364
lhand -16.835 -15.9525
lfingers 7.12502
lthumb 9.3946 13.8181
rfemur -48.7928 -3.68009 20.3166
rtibia 61.1376
rfoot -12.9542 -2.35707
rtoes -1.74206
lfemur -23.5912 3.56335 -26.9356
ltibia 33.7588
lfoot -25.1047 -6.83828
ltoes -5.1281
74
root -0.638147 16.3342 -30.5975 16.4708 0.387774 2.76723
lowerback -13.837 -1.51093 -4.83383
upperback -5.08487 -1.35641 -0.15402
thorax 2.49337 -0.64299 2.35232
lowerneck -2.82823 -1.07064 -0.727976
upperneck 8.085 -1.51576 1.5154
head 3.0962 -0.721462 0.562406
rclavicle -1.28882e-014 -4.87022e-015
rhumerus -70.9149 -40.7797 -31.4133
rradius 11.4037
rwrist 47.5461
rhand -12.8717 -33.501
rfingers 7.12502
rthumb 13.2168 -63.062
lclavicle -1.28882e-014 -4.87022e-015
lhumerus -27.8907 0.486019 82.9568
lradius 28.1474
lwrist -5.51895
lhand -17.1031 -15.7587
lfingers 7.12502
lthumb 9.13583 14.0235
rfemur -49.0855 -3.6362 20.7045
rtibia 58.1663
rfoot -12.411 -2.96242
rtoes 3.15611
lfemur -22.3139 3.99885 -26.7006
ltibia 33.1344
lfoot -25.3565 -7.44256
ltoes -4.19333
75
root -0.644144 16.3246 -30.3896 16.5241 0.716083 2.77845
lowerback -13.8006 -1.56305 -4.87855
upperback -5.18234 -1.42485 -0.117908
thorax 2.37808 -0.672008 2.40608
lowerneck -2.62834 -1.16938 -0.639813
upperneck 8.28091 -1.65002 1.43531
head 3.12512 -0.788457 0.517221
rclavicle -2.19943e-014 -6.90777e-015
rhumerus -75.67 -41.7109 -24.6479
rradius 10.7568
rwrist 52.5854
rhand -13.7192 -32.311
rfingers 7.12502
rthumb 12.3998 -61.9233
lclavicle -2.19943e-014 -6.90777e-015
lhumerus -27.2183 -1.29926 83.4102
lradius 29.0048
lwrist -4.20863
lhand -17.4756 -15.9288
lfingers 7.12502
lthumb 8.77645 13.8688
rfemur -49.4519 -3.69067 20.9805
rtibia 55.0017
rfoot -11.936 -4.34227
rtoes 1.58875
lfemur -21.1537 4.2421 -26.5876
ltibia 32.3253
lfoot -25.4261 -8.13691
ltoes -2.88218
76
root -0.649966 16.321 -30.184 16.6039 1.19016 2.91048
lowerback -13.8082 -1.66473 -4.97903
upperback -5.19965 -1.54393 -0.150864
thorax 2.37424 -0.729903 2.40916
lowerneck -2.72073 -1.40364 -0.470946
upperneck 8.93684 -1.96455 1.22181
head 3.36729 -0.944245 0.405967
rclavicle -1.52612e-014 3.65267e-015
rhumerus -74.5214 -40.3944 -27.1752
rradius 11.124
rwrist 49.1637
rhand -13.0037 -33.8608
rfingers 7.12502
rthumb 13.0896 -63.43
lclavicle -1.52612e-014 3.65267e-015
lhumerus -26.4736 -3.01133 83.7153
lradius 29.8999
lwrist -3.15017
lhand -17.7887 -16.328
lfingers 7.12502
lthumb 8.47422 13.482
rfemur -49.713 -3.95806 21.1418
rtibia 51.6577
rfoot -12.655 -6.11939
rtoes -7.3469
lfemur -20.004 4.41721 -26.5586
ltibia 31.404
lfoot -25.4878 -8.90333
ltoes -2.14143
77
root -0.651442 16.3283 -29.978 16.6748 1.66005 3.15754
lowerback -13.9277 -1.79423 -5.10637
upperback -5.10043 -1.68427 -0.226893
thorax 2.55451 -0.804606 2.37472
lowerneck -2.49272 -1.2649 -0.436063
upperneck 8.15145 -1.79601 1.54008
head 3.05588 -0.852007 0.511312
rclavicle 4.73293e-015 -1.51325e-014
rhumerus -73.2175 -38.9294 -30.1459
rradius 11.4541
rwrist 46.818
rhand -12.5298 -35.306
rfingers 7.12502
rthumb 13.5464 -64.8454
lclavicle 4.73293e-015 -1.51325e-014
lhumerus -25.6446 -4.50586 83.8901
lradius 30.8702
lwrist -2.26075
lhand -18.1368 -16.8688
lfingers 7.12502
lthumb 8.1383 12.9545
rfemur -49.8512 -4.39819 21.1256
rtibia 48.1312
rfoot -12.6066 -6.10506
rtoes -7.01015
lfemur -18.7824 4.52792 -26.6612
ltibia 30.4552
lfoot -25.591 -9.39098
ltoes -2.62319
78
root -0.651058 16.3336 -29.7708 16.6974 2.23393 3.28045
lowerback -13.9148 -1.94987 -5.08328
upperback -4.9801 -1.88925 -0.224911
thorax 2.68994 -0.911417 2.32858
lowerneck -2.58954 -1.30264 -0.227788
upperneck 7.78073 -1.83423 1.30269
head 2.94247 -0.874184 0.397065
rclavicle -1.99302e-014 -1.26725e-014
rhumerus -74.0752 -38.8947 -29.0486
rradius 11.4895
rwrist 46.8041
rhand -11.8256 -36.6327
rfingers 7.12502
rthumb 14.225 -66.1256
lclavicle -1.99302e-014 -1.26725e-014
lhumerus -24.6984 -5.82835 84.0216
lradius 31.8412
lwrist -1.19592
lhand -18.3131 -16.9332
lfingers 7.12502
lthumb 7.96816 12.8966
rfemur -49.7713 -4.92473 21.2434
rtibia 44.4305
rfoot -12.5499 -5.90968
rtoes -7.10873
lfemur -17.4472 4.49615 -26.5748
ltibia 29.4938
lfoot -25.6493 -9.69728
ltoes -3.21311
